#!OML:ASF H:\Pregnant\Project 1\Capture day 1\Session 1\femalepreg.ASF
:FULLY-SPECIFIED
:DEGREES
372
root 7.34212 15.3351 20.1824 -143.975 4.88923 -175.613
lowerback -3.91678 2.43456 2.85103
upperback -6.86194 3.83809 0.565464
thorax -4.77831 2.04583 -1.03481
lowerneck -32.438 14.4107 6.92636
upperneck 3.76037 17.1867 -13.6147
head 7.9182 6.31532 -2.95913
rclavicle 3.34952e-014 6.36111e-015
rhumerus -19.2523 25.8523 -86.162
rradius 80.9916
rwrist -51.2817
rhand -30.9606 -48.6256
rfingers 7.12502
rthumb -4.24506 -78.563
lclavicle 3.34952e-014 6.36111e-015
lhumerus -25.7914 -39.5684 92.7303
lradius 80.6603
lwrist 79.7043
lhand -58.8017 2.89492
lfingers 7.12502
lthumb -31.0104 30.2944
rfemur -62.4103 -7.58722 29.0431
rtibia 41.9148
rfoot -10.3599 -13.8452
rtoes -9.79038
lfemur -62.429 7.21615 -16.6261
ltibia 44.9543
lfoot -14.2912 9.69377
ltoes -18.2561
373
root 7.33537 15.3789 20.1623 -144.387 4.72666 -175.628
lowerback -4.17869 2.40776 2.86146
upperback -6.94972 3.81438 0.544805
thorax -4.72296 2.0425 -1.05096
lowerneck -32.1883 14.357 6.98429
upperneck 4.13588 17.1935 -13.4158
head 7.99503 6.3689 -2.89613
rclavicle -3.27001e-014 -2.22639e-014
rhumerus -19.8294 25.786 -86.4006
rradius 80.8722
rwrist -51.4216
rhand -31.0596 -48.5768
rfingers 7.12502
rthumb -4.3407 -78.5123
lclavicle -3.27001e-014 -2.22639e-014
lhumerus -26.1476 -39.7177 93.0276
lradius 80.5446
lwrist 79.7494
lhand -58.6035 4.18143
lfingers 7.12502
lthumb -30.8214 31.6168
rfemur -61.1916 -7.17925 28.5056
rtibia 40.9398
rfoot -10.0082 -14.554
rtoes -9.63918
lfemur -61.3087 6.76916 -16.3348
ltibia 43.9821
lfoot -13.9708 9.95201
ltoes -18.2655
374
root 7.32805 15.421 20.1419 -144.799 4.56777 -175.638
lowerback -4.44035 2.38578 2.87351
upperback -7.03465 3.7971 0.523475
thorax -4.66458 2.04238 -1.06869
lowerneck -31.9253 14.3105 7.04648
upperneck 4.50251 17.2067 -13.2245
head 8.06885 6.42492 -2.83563
rclavicle 4.67144e-015 -3.97569e-016
rhumerus -20.4037 25.7018 -86.6325
rradius 80.7619
rwrist -51.5525
rhand -31.1447 -48.5439
rfingers 7.12502
rthumb -4.42285 -78.4777
lclavicle 4.67144e-015 -3.97569e-016
lhumerus -26.5002 -39.8519 93.3292
lradius 80.4299
lwrist 79.8021
lhand -58.39 5.45337
lfingers 7.12502
lthumb -30.6178 32.927
rfemur -59.9732 -6.7381 27.9621
rtibia 39.9675
rfoot -9.6757 -15.2799
rtoes -9.37939
lfemur -60.1955 6.31573 -16.0466
ltibia 43.0166
lfoot -13.6506 10.2186
ltoes -18.2661
375
root 7.32058 15.4619 20.1215 -145.203 4.41137 -175.65
lowerback -4.70471 2.36783 2.87878
upperback -7.12128 3.78587 0.499047
thorax -4.60665 2.04581 -1.08583
lowerneck -31.6415 14.2695 7.11412
upperneck 4.85699 17.224 -13.0418
head 8.13747 6.48289 -2.77883
rclavicle 3.50855e-014 -8.94531e-015
rhumerus -20.9785 25.5938 -86.8605
rradius 80.6616
rwrist -51.6738
rhand -31.2157 -48.5232
rfingers 7.12502
rthumb -4.49139 -78.4556
lclavicle 3.50855e-014 -8.94531e-015
lhumerus -26.8493 -39.9789 93.6361
lradius 80.3104
lwrist 79.8718
lhand -58.1675 6.61521
lfingers 7.12502
lthumb -30.4056 34.1283
rfemur -58.7678 -6.25909 27.4073
rtibia 39.0036
rfoot -9.36235 -16.0317
rtoes -9.01029
lfemur -59.0982 5.85464 -15.7666
ltibia 42.0585
lfoot -13.3325 10.4897
ltoes -18.2586
376
root 7.31292 15.5013 20.1009 -145.602 4.26006 -175.663
lowerback -4.97661 2.35002 2.87315
upperback -7.20737 3.77537 0.475496
thorax -4.54476 2.05049 -1.09565
lowerneck -31.3133 14.2428 7.1953
upperneck 5.18315 17.255 -12.8717
head 8.19389 6.54869 -2.72743
rclavicle -8.69683e-015 1.78906e-015
rhumerus -21.5497 25.4794 -87.0866
rradius 80.5676
rwrist -51.7884
rhand -31.2787 -48.5169
rfingers 7.12502
rthumb -4.55227 -78.448
lclavicle -8.69683e-015 1.78906e-015
lhumerus -27.1993 -40.0826 93.9455
lradius 80.1875
lwrist 79.9466
lhand -57.9239 7.68201
lfingers 7.12502
lthumb -30.1733 35.2378
rfemur -57.5742 -5.74012 26.8415
rtibia 38.0495
rfoot -9.0683 -16.8124
rtoes -8.56396
lfemur -58.0115 5.38528 -15.4939
ltibia 41.1089
lfoot -13.0202 10.7693
ltoes -18.2478
377
root 7.30488 15.5391 20.0805 -145.993 4.10824 -175.673
lowerback -5.25146 2.33193 2.86588
upperback -7.29279 3.76528 0.456491
thorax -4.48113 2.05589 -1.09977
lowerneck -30.9451 14.2314 7.28264
upperneck 5.47776 17.3028 -12.7165
head 8.23742 6.62289 -2.68058
rclavicle -2.53947e-014 -7.95139e-016
rhumerus -22.1024 25.3655 -87.3002
rradius 80.4743
rwrist -51.8855
rhand -31.4189 -48.9
rfingers 7.12502
rthumb -4.68768 -78.8282
lclavicle -2.53947e-014 -7.95139e-016
lhumerus -27.5399 -40.1628 94.2546
lradius 80.0585
lwrist 80.019
lhand -57.6548 8.7405
lfingers 7.12502
lthumb -29.9165 36.3429
rfemur -56.4 -5.19131 26.279
rtibia 37.1086
rfoot -8.79264 -17.6137
rtoes -8.05723
lfemur -56.9435 4.91193 -15.2267
ltibia 40.171
lfoot -12.7147 11.0502
ltoes -18.2311
378
root 7.29636 15.5753 20.0599 -146.379 3.96439 -175.687
lowerback -5.53329 2.31643 2.84667
upperback -7.37524 3.75889 0.437412
thorax -4.41115 2.06393 -1.09681
lowerneck -30.549 14.2318 7.37255
upperneck 5.75062 17.364 -12.5691
head 8.2715 6.70363 -2.63581
rclavicle -3.58806e-014 -1.09332e-014
rhumerus -22.6413 25.2419 -87.5034
rradius 80.3843
rwrist -51.9709
rhand -31.5597 -49.3384
rfingers 7.12502
rthumb -4.82363 -79.2635
lclavicle -3.58806e-014 -1.09332e-014
lhumerus -27.8729 -40.2238 94.5651
lradius 79.9216
lwrist 80.0775
lhand -57.3817 9.78729
lfingers 7.12502
lthumb -29.6559 37.4363
rfemur -55.2456 -4.60712 25.7064
rtibia 36.1808
rfoot -8.52401 -18.4437
rtoes -7.53822
lfemur -55.8893 4.42689 -14.9718
ltibia 39.245
lfoot -12.4189 11.3441
ltoes -18.1995
379
root 7.28708 15.6098 20.039 -146.763 3.823 -175.705
lowerback -5.81563 2.30359 2.82745
upperback -7.45393 3.75607 0.418803
thorax -4.33704 2.07383 -1.09314
lowerneck -30.1222 14.2405 7.46025
upperneck 6.00138 17.4355 -12.4277
head 8.29472 6.78981 -2.59268
rclavicle 6.4605e-015 2.5842e-015
rhumerus -23.1589 25.1211 -87.6915
rradius 80.2931
rwrist -52.0558
rhand -31.7987 -50.2073
rfingers 7.12502
rthumb -5.05438 -80.127
lclavicle 6.4605e-015 2.5842e-015
lhumerus -28.1912 -40.2724 94.8749
lradius 79.7731
lwrist 80.1309
lhand -57.0986 10.7823
lfingers 7.12502
lthumb -29.3856 38.4791
rfemur -54.11 -4.00454 25.1362
rtibia 35.2696
rfoot -8.2656 -19.2889
rtoes -7.00674
lfemur -54.8468 3.93192 -14.7292
ltibia 38.334
lfoot -12.1341 11.6461
ltoes -18.1502
380
root 7.27707 15.6427 20.0178 -147.146 3.68591 -175.725
lowerback -6.10167 2.29675 2.80617
upperback -7.52505 3.76055 0.399578
thorax -4.25286 2.0874 -1.08824
lowerneck -29.6999 14.256 7.53602
upperneck 6.25104 17.5171 -12.2822
head 8.31713 6.8795 -2.54515
rclavicle -1.86361e-014 -6.75868e-015
rhumerus -23.6618 24.9851 -87.8605
rradius 80.2124
rwrist -52.1458
rhand -32.0071 -50.9301
rfingers 7.12502
rthumb -5.25559 -80.845
lclavicle -1.86361e-014 -6.75868e-015
lhumerus -28.488 -40.3166 95.1797
lradius 79.6166
lwrist 80.1825
lhand -56.8111 11.7484
lfingers 7.12502
lthumb -29.1111 39.493
rfemur -52.9916 -3.37743 24.5629
rtibia 34.3771
rfoot -8.03159 -20.1511
rtoes -6.40889
lfemur -53.8158 3.42516 -14.4991
ltibia 37.4372
lfoot -11.8584 11.9624
ltoes -18.0904
381
root 7.26626 15.6738 19.9964 -147.519 3.55282 -175.751
lowerback -6.39647 2.29294 2.78271
upperback -7.59665 3.76966 0.376951
thorax -4.16432 2.10368 -1.08499
lowerneck -29.2569 14.2827 7.62596
upperneck 6.4958 17.6105 -12.1465
head 8.33783 6.97454 -2.50185
rclavicle -1.34677e-014 1.98785e-015
rhumerus -24.1646 24.8386 -88.0244
rradius 80.142
rwrist -52.2494
rhand -32.191 -51.4438
rfingers 7.12502
rthumb -5.43314 -81.3541
lclavicle -1.34677e-014 1.98785e-015
lhumerus -28.7819 -40.3604 95.4838
lradius 79.4551
lwrist 80.2529
lhand -56.5513 12.6125
lfingers 7.12502
lthumb -28.863 40.3998
rfemur -51.9024 -2.73186 23.9888
rtibia 33.5072
rfoot -7.82404 -21.0223
rtoes -5.73336
lfemur -52.8067 2.90879 -14.2859
ltibia 36.556
lfoot -11.59 12.2905
ltoes -18.0292
382
root 7.25464 15.7027 19.9749 -147.88 3.42576 -175.783
lowerback -6.69947 2.293 2.75749
upperback -7.66985 3.78474 0.349875
thorax -4.07278 2.12332 -1.08468
lowerneck -28.8048 14.3207 7.72288
upperneck 6.74302 17.7172 -12.0144
head 8.35976 7.07518 -2.45904
rclavicle -5.19325e-014 -1.42131e-014
rhumerus -24.6703 24.6797 -88.1828
rradius 80.0866
rwrist -52.3722
rhand -32.3032 -51.6655
rfingers 7.12502
rthumb -5.54151 -81.5731
lclavicle -5.19325e-014 -1.42131e-014
lhumerus -29.0744 -40.4027 95.7869
lradius 79.2938
lwrist 80.3407
lhand -56.3192 13.4191
lfingers 7.12502
lthumb -28.6413 41.244
rfemur -50.8487 -2.06265 23.4098
rtibia 32.6618
rfoot -7.65124 -21.9018
rtoes -4.94059
lfemur -51.825 2.38571 -14.0913
ltibia 35.6904
lfoot -11.3242 12.6297
ltoes -17.9689
